{
    "asset" : {
        "generator" : "Khronos glTF Blender I/O v3.2.43",
        "version" : "2.0"
    },
    "scene" : 0,
    "scenes" : [
        {
            "name" : "Scene",
            "nodes" : [
                0
            ]
        }
    ],
    "nodes" : [
        {
            "mesh" : 0,
            "name" : "\u30d9\u30b8\u30a8\u30ab\u30fc\u30d6",
            "rotation" : [
                -0.5030945539474487,
                -0.5030946135520935,
                -0.49688616394996643,
                0.4968861937522888
            ],
            "scale" : [
                0.4000000059604645,
                1,
                0.5
            ],
            "translation" : [
                -0.48893022537231445,
                0.14655616879463196,
                0.0064299460500478745
            ]
        }
    ],
    "animations" : [
        {
            "channels" : [
                {
                    "sampler" : 0,
                    "target" : {
                        "node" : 0,
                        "path" : "translation"
                    }
                },
                {
                    "sampler" : 1,
                    "target" : {
                        "node" : 0,
                        "path" : "rotation"
                    }
                },
                {
                    "sampler" : 2,
                    "target" : {
                        "node" : 0,
                        "path" : "scale"
                    }
                }
            ],
            "name" : "\u30d9\u30b8\u30a8\u30ab\u30fc\u30d6",
            "samplers" : [
                {
                    "input" : 10,
                    "interpolation" : "LINEAR",
                    "output" : 11
                },
                {
                    "input" : 10,
                    "interpolation" : "LINEAR",
                    "output" : 12
                },
                {
                    "input" : 10,
                    "interpolation" : "LINEAR",
                    "output" : 13
                }
            ]
        }
    ],
    "materials" : [
        {
            "doubleSided" : true,
            "name" : "\u30de\u30c6\u30ea\u30a2\u30eb.001",
            "pbrMetallicRoughness" : {
                "baseColorFactor" : [
                    0.010370155796408653,
                    0.010370155796408653,
                    0.010370155796408653,
                    1
                ],
                "metallicFactor" : 0,
                "roughnessFactor" : 0.5
            }
        },
        {
            "doubleSided" : true,
            "name" : "\u30de\u30c6\u30ea\u30a2\u30eb",
            "pbrMetallicRoughness" : {}
        }
    ],
    "meshes" : [
        {
            "name" : "\u30d9\u30b8\u30a8\u30ab\u30fc\u30d6",
            "primitives" : [
                {
                    "attributes" : {
                        "POSITION" : 0,
                        "NORMAL" : 1,
                        "TEXCOORD_0" : 2,
                        "TEXCOORD_1" : 3
                    },
                    "indices" : 4,
                    "material" : 0
                },
                {
                    "attributes" : {
                        "POSITION" : 5,
                        "NORMAL" : 6,
                        "TEXCOORD_0" : 7,
                        "TEXCOORD_1" : 8
                    },
                    "indices" : 9,
                    "material" : 1
                }
            ]
        }
    ],
    "accessors" : [
        {
            "bufferView" : 0,
            "componentType" : 5126,
            "count" : 1794,
            "max" : [
                1.0022162199020386,
                -0.35448262095451355,
                0.48005086183547974
            ],
            "min" : [
                -1.0111781358718872,
                -0.5208204984664917,
                -0.08487012982368469
            ],
            "type" : "VEC3"
        },
        {
            "bufferView" : 1,
            "componentType" : 5126,
            "count" : 1794,
            "type" : "VEC3"
        },
        {
            "bufferView" : 2,
            "componentType" : 5126,
            "count" : 1794,
            "type" : "VEC2"
        },
        {
            "bufferView" : 3,
            "componentType" : 5126,
            "count" : 1794,
            "type" : "VEC2"
        },
        {
            "bufferView" : 4,
            "componentType" : 5123,
            "count" : 9504,
            "type" : "SCALAR"
        },
        {
            "bufferView" : 5,
            "componentType" : 5126,
            "count" : 18889,
            "max" : [
                3.7290854454040527,
                1.4889299869537354,
                3.7813100814819336
            ],
            "min" : [
                -5.249033451080322,
                -0.5110688209533691,
                -2.292775869369507
            ],
            "type" : "VEC3"
        },
        {
            "bufferView" : 6,
            "componentType" : 5126,
            "count" : 18889,
            "type" : "VEC3"
        },
        {
            "bufferView" : 7,
            "componentType" : 5126,
            "count" : 18889,
            "type" : "VEC2"
        },
        {
            "bufferView" : 8,
            "componentType" : 5126,
            "count" : 18889,
            "type" : "VEC2"
        },
        {
            "bufferView" : 9,
            "componentType" : 5123,
            "count" : 118080,
            "type" : "SCALAR"
        },
        {
            "bufferView" : 10,
            "componentType" : 5126,
            "count" : 2,
            "max" : [
                0.08333333333333333
            ],
            "min" : [
                0.041666666666666664
            ],
            "type" : "SCALAR"
        },
        {
            "bufferView" : 11,
            "componentType" : 5126,
            "count" : 2,
            "type" : "VEC3"
        },
        {
            "bufferView" : 12,
            "componentType" : 5126,
            "count" : 2,
            "type" : "VEC4"
        },
        {
            "bufferView" : 13,
            "componentType" : 5126,
            "count" : 2,
            "type" : "VEC3"
        }
    ],
    "bufferViews" : [
        {
            "buffer" : 0,
            "byteLength" : 21528,
            "byteOffset" : 0
        },
        {
            "buffer" : 0,
            "byteLength" : 21528,
            "byteOffset" : 21528
        },
        {
            "buffer" : 0,
            "byteLength" : 14352,
            "byteOffset" : 43056
        },
        {
            "buffer" : 0,
            "byteLength" : 14352,
            "byteOffset" : 57408
        },
        {
            "buffer" : 0,
            "byteLength" : 19008,
            "byteOffset" : 71760
        },
        {
            "buffer" : 0,
            "byteLength" : 226668,
            "byteOffset" : 90768
        },
        {
            "buffer" : 0,
            "byteLength" : 226668,
            "byteOffset" : 317436
        },
        {
            "buffer" : 0,
            "byteLength" : 151112,
            "byteOffset" : 544104
        },
        {
            "buffer" : 0,
            "byteLength" : 151112,
            "byteOffset" : 695216
        },
        {
            "buffer" : 0,
            "byteLength" : 236160,
            "byteOffset" : 846328
        },
        {
            "buffer" : 0,
            "byteLength" : 8,
            "byteOffset" : 1082488
        },
        {
            "buffer" : 0,
            "byteLength" : 24,
            "byteOffset" : 1082496
        },
        {
            "buffer" : 0,
            "byteLength" : 32,
            "byteOffset" : 1082520
        },
        {
            "buffer" : 0,
            "byteLength" : 24,
            "byteOffset" : 1082552
        }
    ],
    "buffers" : [
        {
            "byteLength" : 1082576,
            "uri" : "data:application/octet-stream;base64,"
        }
    ]
}
